<?xml version="1.0" encoding="UTF-8"?>
<svg id="Layer_2" data-name="Layer 2" xmlns="http://www.w3.org/2000/svg" viewBox="0 0 64.27 19.5">
  <g id="Layer_1-2" data-name="Layer 1">
    <g>
      <path d="m3.65,8.61c-.07-.1-.17-2.11-.19-2.42H0c.04,1.06.09,2.09.1,3.16v6.57c-.02,1.08-.05,2.22-.02,3.29h4.05c.03-2.19-.06-4.68,0-6.78.03-1.11.45-1.86,1.11-2.29.92-.6,1.71-.48,2.86-.37v-3.81c-2-.33-3.55.66-4.27,2.36-.05.12-.05.26-.19.28h0Zm9.49,2.58c.05-.71.39-1.39.72-1.8.15-.19.45-.45.7-.57.31-.15.6-.24.98-.26,1.58-.09,2.35,1.12,2.39,2.63h-4.8Zm7.82,7.46c0-.22-.48-2.63-.54-2.72-.29.05-.68.2-1,.27-.99.24-2.55.36-3.53.2-1.4-.23-2.66-1-2.73-2.43l8.4.03c.19-1.83.22-3.26-.56-5.01-.59-1.32-1.6-2.29-3.06-2.81-1.46-.51-3.63-.38-4.93.28-1.33.67-2.29,1.56-2.94,2.92-1.02,2.13-1.12,4.92.09,7.1.52.94,1.29,1.64,2.23,2.15,1.77.97,4.32,1.01,6.27.67.56-.1,1.91-.39,2.29-.65h0Zm6.53-5.56c-.14-1.93.6-3.67,2.21-4.02.46-.1.94-.08,1.37.07.19.06.37.16.52.25.2.13.28.21.43.37.64.67.69,1.3.69,2.44,0,.98.1,1.98-.31,2.79-.99,1.95-4.62,2-4.9-1.9h0Zm5.19-5.73c-.1-.06-.21-.25-.28-.32-.12-.13-.2-.19-.33-.29-.74-.62-1.92-.85-2.91-.85-1.74,0-3.19.82-4.23,2.05-1.01,1.18-1.55,2.96-1.55,4.94,0,2.9,1.35,5.11,3.19,6.05,1.94,1,4.65.67,5.99-.94.13-.16.46-.65.51-.67.04.03.02,0,.04.07l.15,1.8c.46.06,2.87.02,3.6.02-.04-1.21-.1-2.43-.11-3.64V.3c-.93-.05-2.73,0-3.75-.01h-.3s0,6.64,0,6.64c0,.07,0,.14,0,.21l-.02.19s0,.02,0,.02h0Zm7.33,11.86h4.05s0-13.02,0-13.02c-.28-.07-1.64-.02-2.03-.02-.67,0-1.35,0-2.02,0v13.03h0Zm16.87-13.04h-1.73s0,2.99,0,2.99h1.73s0,10.05,0,10.05h4.05v-10.05s2.58,0,2.58,0v-2.98s-2.59,0-2.59,0c-.04-.41-.01-1.09.08-1.48.21-.85.72-1.45,1.69-1.5.57-.03.92.09,1.42.18l.16-3.11c-.27-.12-1.14-.22-1.48-.25-.57-.05-1.08-.03-1.62.05-.48.07-.93.21-1.34.38-1.68.72-2.57,2.2-2.86,4.07-.09.58-.05,1.07-.09,1.65h0Zm-1.7-5.92c-1.09-.21-1.94-.36-3.13-.18-2.43.38-3.82,2.06-4.17,4.47-.12.8-.04,1.11-.09,1.64h-1.73s0,2.99,0,2.99h1.73s0,10.05,0,10.05h4.05s0-10.05,0-10.05h2.59s0-2.99,0-2.99h-2.6c-.05-.43,0-1.11.09-1.51.21-.89.78-1.45,1.72-1.48.75-.03.95.13,1.39.17l.16-3.11h0Z" fill="#231f20" fill-rule="evenodd"/>
      <path d="m41.8.14c-.69.08-1.11.25-1.52.68-1.15,1.19-.56,3.8,1.94,3.62,1.22-.09,2.17-1.02,2.04-2.36-.11-1.17-1.13-2.1-2.46-1.94h0Z" fill="#ed1c24" fill-rule="evenodd"/>
    </g>
  </g>
</svg>